<svg xmlns="http://www.w3.org/2000/svg" viewBox="0 0 64 64" role="img" aria-label="Spacegurumis">
  <defs>
    <linearGradient id="g" x1="0" y1="0" x2="1" y2="1">
      <stop offset="0" stop-color="#0f766e"/>
      <stop offset="1" stop-color="#111111"/>
    </linearGradient>
  </defs>
  <rect x="4" y="4" width="56" height="56" rx="18" fill="url(#g)"/>
  <path d="M22 26c0-5 4-8 10-8 4 0 7 1 10 3l-2 4c-2-2-5-3-8-3-3 0-5 1-5 3 0 6 16 2 16 14 0 5-4 9-12 9-5 0-9-2-12-5l3-4c2 3 6 4 9 4 4 0 6-1 6-4 0-6-15-2-15-13z"
        fill="#fff" opacity="0.95"/>
</svg>

